<?xml version='1.0' encoding='utf-8'?>
<svg xmlns="http://www.w3.org/2000/svg" version="1.1" id="Layer_1" x="0px" y="0px" viewBox="0 0 500 500" style="enable-background:new 0 0 500 500;"> <style type="text/css"> .st0{fill:#0CAA8F;} .st1{fill:#F86B00;} .st2{fill:#FFFFFF;} .st3{fill:#4D5357;} .st4{fill:#A2A5A7;} .st5{opacity:0.2;} .st6{fill:#B7D967;} .st7{fill:#FFBD35;} .st8{fill:#F85523;} .st9{fill:#CACACC;} .st10{fill:#43484D;} .st11{fill:#B2B4B6;} .st12{opacity:0.5;} .st13{fill:#2FCA74;} </style> <rect class="st0" width="500" height="500"/> <g> <path class="st1" d="M435.8,198.8c0-64-51.9-115.8-115.8-115.8c-64,0-115.8,51.9-115.8,115.8c0,64,51.9,115.8,115.8,115.8 C383.9,314.7,435.8,262.8,435.8,198.8z"/> <ellipse transform="matrix(0.9985 -5.540491e-02 5.540491e-02 0.9985 -10.5256 18.0325)" class="st2" cx="320" cy="198.8" rx="92.9" ry="92.9"/> <circle class="st1" cx="320" cy="198.8" r="69.5"/> <circle class="st2" cx="320" cy="198.8" r="51.4"/> <path class="st1" d="M337,198.8c0-9.4-7.7-17.1-17.1-17.1c-9.4,0-17.1,7.7-17.1,17.1c0,9.4,7.7,17.1,17.1,17.1 C329.4,215.9,337,208.3,337,198.8z"/> <polygon class="st3" points="265.5,308.3 255.7,302 319.6,190.7 432.1,242.3 441.6,263.5 "/> <rect x="279.7" y="326" transform="matrix(0.4165 -0.9092 0.9092 0.4165 -134.2563 447.0005)" class="st4" width="2.8" height="4.2"/> <rect x="276.8" y="332.3" transform="matrix(0.4165 -0.9091 0.9091 0.4165 -141.6685 448.0257)" class="st4" width="2.8" height="4.2"/> <rect x="278.9" y="340.8" transform="matrix(0.4163 -0.9092 0.9092 0.4163 -148.2215 454.9895)" class="st4" width="2.8" height="4.2"/> <rect x="273.9" y="338.6" transform="matrix(0.4166 -0.9091 0.9091 0.4166 -149.0832 449.0347)" class="st4" width="2.8" height="4.2"/> <rect x="276" y="347.1" transform="matrix(0.4164 -0.9092 0.9092 0.4164 -155.6394 455.9907)" class="st4" width="2.8" height="4.2"/> <rect x="271.1" y="344.9" transform="matrix(0.4164 -0.9092 0.9092 0.4164 -156.4647 450.177)" class="st4" width="2.8" height="4.2"/> <g> <polygon class="st2" points="371.3,417 242.8,358.2 319.6,190.7 432.1,242.3 441.6,263.5 "/> <g class="st5"> <rect x="351.3" y="226.3" transform="matrix(0.4165 -0.9091 0.9091 0.4165 -50.5681 487.9054)" class="st3" width="7" height="114.2"/> </g> <rect x="350.2" y="280.6" transform="matrix(0.4163 -0.9092 0.9092 0.4163 -51.0653 484.1976)" class="st4" width="2.8" height="2.6"/> <rect x="352.9" y="282.2" transform="matrix(0.4161 -0.9093 0.9093 0.4161 -50.5719 487.4952)" class="st4" width="2.8" height="1.9"/> <rect x="355.9" y="283.2" transform="matrix(0.4166 -0.9091 0.9091 0.4166 -50.193 490.7192)" class="st4" width="2.8" height="2.5"/> <rect x="358.8" y="284.6" transform="matrix(0.4166 -0.9091 0.9091 0.4166 -49.7093 494.1276)" class="st4" width="2.8" height="2.5"/> <rect x="321.8" y="266.7" transform="matrix(0.4166 -0.9091 0.9091 0.4166 -55.8677 450.6694)" class="st4" width="2.8" height="4.4"/> <rect x="317.1" y="265.1" transform="matrix(0.4162 -0.9093 0.9093 0.4162 -56.5861 445.2979)" class="st4" width="2.8" height="3.2"/> <rect x="312.1" y="262.3" transform="matrix(0.4166 -0.9091 0.9091 0.4166 -57.4795 439.3016)" class="st4" width="2.8" height="4.2"/> <rect x="307.2" y="260.1" transform="matrix(0.4165 -0.9092 0.9092 0.4165 -58.288 433.5243)" class="st4" width="2.8" height="4.2"/> <rect x="395.9" y="300.6" transform="matrix(0.4162 -0.9093 0.9093 0.4162 -43.4129 537.9817)" class="st4" width="2.8" height="4.4"/> <rect x="391.2" y="299.1" transform="matrix(0.4162 -0.9093 0.9093 0.4162 -44.1818 532.5025)" class="st4" width="2.8" height="3.2"/> <rect x="386.2" y="296.3" transform="matrix(0.4166 -0.9091 0.9091 0.4166 -45.1116 526.4495)" class="st4" width="2.8" height="4.2"/> <rect x="381.3" y="294" transform="matrix(0.4164 -0.9092 0.9092 0.4164 -45.9008 520.7062)" class="st4" width="2.8" height="4.2"/> <rect x="347.3" y="286.9" transform="matrix(0.4166 -0.9091 0.9091 0.4166 -58.5407 485.1073)" class="st4" width="2.8" height="2.6"/> <rect x="350.1" y="288.5" transform="matrix(0.4171 -0.9089 0.9089 0.4171 -58.179 488.1346)" class="st4" width="2.8" height="1.9"/> <rect x="353" y="289.5" transform="matrix(0.4161 -0.9093 0.9093 0.4161 -57.4765 492.0161)" class="st4" width="2.8" height="2.5"/> <rect x="355.9" y="290.8" transform="matrix(0.4166 -0.9091 0.9091 0.4166 -57.1131 495.1785)" class="st4" width="2.8" height="2.5"/> <rect x="318.9" y="273" transform="matrix(0.4163 -0.9093 0.9093 0.4163 -63.211 451.8528)" class="st4" width="2.8" height="4.4"/> <rect x="314.2" y="271.4" transform="matrix(0.4164 -0.9092 0.9092 0.4164 -64.0168 446.2965)" class="st4" width="2.8" height="3.2"/> <rect x="309.3" y="268.6" transform="matrix(0.4166 -0.9091 0.9091 0.4166 -64.895 440.3288)" class="st4" width="2.8" height="4.2"/> <rect x="304.3" y="266.3" transform="matrix(0.4166 -0.9091 0.9091 0.4166 -65.7197 434.5158)" class="st4" width="2.8" height="4.2"/> <rect x="393" y="306.9" transform="matrix(0.4168 -0.909 0.909 0.4168 -50.9494 538.7796)" class="st4" width="2.8" height="4.4"/> <rect x="388.3" y="305.3" transform="matrix(0.4167 -0.9091 0.9091 0.4167 -51.7089 533.3201)" class="st4" width="2.8" height="3.2"/> <rect x="383.3" y="302.5" transform="matrix(0.4166 -0.9091 0.9091 0.4166 -52.5272 527.4772)" class="st4" width="2.8" height="4.2"/> <rect x="378.4" y="300.3" transform="matrix(0.4165 -0.9091 0.9091 0.4165 -53.3268 521.7154)" class="st4" width="2.8" height="4.2"/> <g class="st5"> <rect x="345.5" y="238.8" transform="matrix(0.4165 -0.9091 0.9091 0.4165 -65.3816 489.9987)" class="st3" width="7" height="114.2"/> </g> <rect x="344.4" y="293.2" transform="matrix(0.4169 -0.909 0.909 0.4169 -66.0004 486.0357)" class="st4" width="2.8" height="2.6"/> <rect x="347.2" y="294.8" transform="matrix(0.4171 -0.9089 0.9089 0.4171 -65.5801 489.183)" class="st4" width="2.8" height="1.9"/> <rect x="350.1" y="295.8" transform="matrix(0.4159 -0.9094 0.9094 0.4159 -64.8445 493.152)" class="st4" width="2.8" height="2.5"/> <rect x="353" y="297.1" transform="matrix(0.4169 -0.909 0.909 0.4169 -64.5714 496.1144)" class="st4" width="2.8" height="2.5"/> <rect x="316" y="279.2" transform="matrix(0.4168 -0.909 0.909 0.4168 -70.7111 452.6908)" class="st4" width="2.8" height="4.4"/> <rect x="311.4" y="277.7" transform="matrix(0.4168 -0.909 0.909 0.4168 -71.5073 447.1533)" class="st4" width="2.8" height="3.2"/> <rect x="306.4" y="274.9" transform="matrix(0.4163 -0.9092 0.9092 0.4163 -72.244 441.5049)" class="st4" width="2.8" height="4.2"/> <rect x="301.4" y="272.6" transform="matrix(0.4166 -0.9091 0.9091 0.4166 -73.115 435.5872)" class="st4" width="2.8" height="4.2"/> <rect x="390.1" y="313.2" transform="matrix(0.4165 -0.9091 0.9091 0.4165 -58.2951 539.9456)" class="st4" width="2.8" height="4.4"/> <rect x="385.4" y="311.6" transform="matrix(0.4164 -0.9092 0.9092 0.4164 -59.0568 534.4821)" class="st4" width="2.8" height="3.2"/> <rect x="380.5" y="308.8" transform="matrix(0.4164 -0.9092 0.9092 0.4164 -59.8751 528.6423)" class="st4" width="2.8" height="4.2"/> <rect x="375.5" y="306.6" transform="matrix(0.4166 -0.9091 0.9091 0.4166 -60.7559 522.7155)" class="st4" width="2.8" height="4.2"/> <rect x="341.6" y="299.5" transform="matrix(0.4166 -0.9091 0.9091 0.4166 -73.3477 487.2077)" class="st4" width="2.8" height="2.6"/> <rect x="344.3" y="301.1" transform="matrix(0.4162 -0.9093 0.9093 0.4162 -72.814 490.6036)" class="st4" width="2.8" height="1.9"/> <rect x="347.2" y="302.1" transform="matrix(0.4166 -0.9091 0.9091 0.4166 -72.3981 493.8845)" class="st4" width="2.8" height="2.5"/> <rect x="350.1" y="303.4" transform="matrix(0.4161 -0.9093 0.9093 0.4161 -71.8057 497.5327)" class="st4" width="2.8" height="2.5"/> <rect x="313.2" y="285.5" transform="matrix(0.4165 -0.9091 0.9091 0.4165 -78.0714 453.8416)" class="st4" width="2.8" height="4.4"/> <rect x="308.5" y="284" transform="matrix(0.4165 -0.9091 0.9091 0.4165 -78.8518 448.3404)" class="st4" width="2.8" height="3.2"/> <rect x="303.5" y="281.2" transform="matrix(0.4163 -0.9092 0.9092 0.4163 -79.6495 442.5568)" class="st4" width="2.8" height="4.2"/> <rect x="298.5" y="278.9" transform="matrix(0.4166 -0.9091 0.9091 0.4166 -80.5273 436.6173)" class="st4" width="2.8" height="4.2"/> <rect x="387.2" y="319.5" transform="matrix(0.4163 -0.9092 0.9092 0.4163 -65.6368 541.1266)" class="st4" width="2.8" height="4.4"/> <rect x="382.6" y="317.9" transform="matrix(0.4164 -0.9092 0.9092 0.4164 -66.4512 535.5546)" class="st4" width="2.8" height="3.2"/> <rect x="377.6" y="315.1" transform="matrix(0.4164 -0.9092 0.9092 0.4164 -67.2766 529.703)" class="st4" width="2.8" height="4.2"/> <rect x="372.6" y="312.9" transform="matrix(0.4166 -0.9091 0.9091 0.4166 -68.16 523.7662)" class="st4" width="2.8" height="4.2"/> <g class="st5"> <rect x="339.8" y="251.4" transform="matrix(0.4165 -0.9091 0.9091 0.4165 -80.1892 492.1045)" class="st3" width="7" height="114.2"/> </g> <rect x="338.7" y="305.8" transform="matrix(0.4165 -0.9091 0.9091 0.4165 -80.7358 488.2962)" class="st4" width="2.8" height="2.6"/> <rect x="341.4" y="307.4" transform="matrix(0.416 -0.9094 0.9094 0.416 -80.172 491.767)" class="st4" width="2.8" height="1.9"/> <rect x="344.3" y="308.4" transform="matrix(0.4162 -0.9093 0.9093 0.4162 -79.7137 495.1371)" class="st4" width="2.8" height="2.5"/> <rect x="347.2" y="309.7" transform="matrix(0.4166 -0.9091 0.9091 0.4166 -79.3247 498.33)" class="st4" width="2.8" height="2.5"/> <rect x="310.3" y="291.8" transform="matrix(0.4166 -0.9091 0.9091 0.4166 -85.4898 454.8596)" class="st4" width="2.8" height="4.4"/> <rect x="305.6" y="290.3" transform="matrix(0.4164 -0.9092 0.9092 0.4164 -86.2389 449.4343)" class="st4" width="2.8" height="3.2"/> <rect x="300.6" y="287.5" transform="matrix(0.4165 -0.9092 0.9092 0.4165 -87.0814 443.5432)" class="st4" width="2.8" height="4.2"/> <rect x="295.7" y="285.2" transform="matrix(0.4165 -0.9092 0.9092 0.4165 -87.9066 437.7296)" class="st4" width="2.8" height="4.2"/> <rect x="384.4" y="325.8" transform="matrix(0.4166 -0.9091 0.9091 0.4166 -73.1142 542.0245)" class="st4" width="2.8" height="4.4"/> <rect x="379.7" y="324.2" transform="matrix(0.4169 -0.909 0.909 0.4169 -73.9638 536.3744)" class="st4" width="2.8" height="3.2"/> <rect x="374.7" y="321.4" transform="matrix(0.4165 -0.9092 0.9092 0.4165 -74.7053 530.702)" class="st4" width="2.8" height="4.2"/> <rect x="369.7" y="319.2" transform="matrix(0.4164 -0.9092 0.9092 0.4164 -75.5203 524.912)" class="st4" width="2.8" height="4.2"/> <rect x="335.8" y="312" transform="matrix(0.4166 -0.9091 0.9091 0.4166 -88.1552 489.3097)" class="st4" width="2.8" height="2.6"/> <rect x="338.5" y="313.7" transform="matrix(0.4167 -0.909 0.909 0.4167 -87.7198 492.4832)" class="st4" width="2.8" height="1.9"/> <rect x="341.5" y="314.7" transform="matrix(0.4161 -0.9093 0.9093 0.4161 -87.1113 496.2108)" class="st4" width="2.8" height="2.5"/> <rect x="344.4" y="316" transform="matrix(0.4167 -0.909 0.909 0.4167 -86.7448 499.3413)" class="st4" width="2.8" height="2.5"/> <rect x="307.4" y="298.1" transform="matrix(0.4161 -0.9093 0.9093 0.4161 -92.8104 456.1245)" class="st4" width="2.8" height="4.4"/> <rect x="302.7" y="296.6" transform="matrix(0.4167 -0.9091 0.9091 0.4167 -93.6862 450.3761)" class="st4" width="2.8" height="3.2"/> <rect x="297.7" y="293.8" transform="matrix(0.4165 -0.9091 0.9091 0.4165 -94.4922 444.577)" class="st4" width="2.8" height="4.2"/> <rect x="292.8" y="291.5" transform="matrix(0.4164 -0.9092 0.9092 0.4164 -95.2948 438.8268)" class="st4" width="2.8" height="4.2"/> <rect x="381.5" y="332.1" transform="matrix(0.4166 -0.9091 0.9091 0.4166 -80.5185 543.0754)" class="st4" width="2.8" height="4.4"/> <rect x="376.8" y="330.5" transform="matrix(0.4164 -0.9092 0.9092 0.4164 -81.2561 537.6694)" class="st4" width="2.8" height="3.2"/> <rect x="371.8" y="327.7" transform="matrix(0.4165 -0.9091 0.9091 0.4165 -82.1192 531.733)" class="st4" width="2.8" height="4.2"/> <rect x="366.9" y="325.5" transform="matrix(0.4165 -0.9092 0.9092 0.4165 -82.9351 525.9398)" class="st4" width="2.8" height="4.2"/> <g class="st5"> <rect x="334" y="264" transform="matrix(0.4165 -0.9091 0.9091 0.4165 -94.9953 494.2128)" class="st3" width="7" height="114.2"/> </g> <rect x="332.9" y="318.3" transform="matrix(0.4163 -0.9092 0.9092 0.4163 -95.4985 490.5109)" class="st4" width="2.8" height="2.6"/> <rect x="335.6" y="320" transform="matrix(0.4162 -0.9093 0.9093 0.4162 -95.0315 493.7608)" class="st4" width="2.8" height="1.9"/> <rect x="338.6" y="321" transform="matrix(0.417 -0.9089 0.9089 0.417 -94.6788 496.864)" class="st4" width="2.8" height="2.5"/> <rect x="341.5" y="322.3" transform="matrix(0.416 -0.9094 0.9094 0.416 -94.0098 500.7322)" class="st4" width="2.8" height="2.5"/> <rect x="304.5" y="304.4" transform="matrix(0.4165 -0.9091 0.9091 0.4165 -100.289 456.9818)" class="st4" width="2.8" height="4.4"/> <rect x="299.8" y="302.9" transform="matrix(0.4168 -0.909 0.909 0.4168 -101.1121 451.3647)" class="st4" width="2.8" height="3.2"/> <rect x="294.8" y="300.1" transform="matrix(0.4165 -0.9091 0.9091 0.4165 -101.8964 445.6281)" class="st4" width="2.8" height="4.2"/> <rect x="289.9" y="297.8" transform="matrix(0.4165 -0.9092 0.9092 0.4165 -102.7159 439.8325)" class="st4" width="2.8" height="4.2"/> <rect x="378.6" y="338.4" transform="matrix(0.4166 -0.9091 0.9091 0.4166 -87.9229 544.1266)" class="st4" width="2.8" height="4.4"/> <rect x="373.9" y="336.8" transform="matrix(0.4164 -0.9092 0.9092 0.4164 -88.664 538.7149)" class="st4" width="2.8" height="3.2"/> <rect x="368.9" y="334" transform="matrix(0.4165 -0.9091 0.9091 0.4165 -89.5241 532.7844)" class="st4" width="2.8" height="4.2"/> <rect x="364" y="331.8" transform="matrix(0.4165 -0.9092 0.9092 0.4165 -90.3401 526.9913)" class="st4" width="2.8" height="4.2"/> <rect x="330" y="324.6" transform="matrix(0.4166 -0.9091 0.9091 0.4166 -102.963 491.4108)" class="st4" width="2.8" height="2.6"/> <rect x="332.8" y="326.2" transform="matrix(0.416 -0.9094 0.9094 0.416 -102.3931 494.9286)" class="st4" width="2.8" height="1.9"/> <rect x="335.7" y="327.3" transform="matrix(0.4167 -0.909 0.909 0.4167 -102.0347 498.033)" class="st4" width="2.8" height="2.5"/> <rect x="338.6" y="328.6" transform="matrix(0.4167 -0.909 0.909 0.4167 -101.5512 501.4416)" class="st4" width="2.8" height="2.5"/> <rect x="301.6" y="310.7" transform="matrix(0.4167 -0.909 0.909 0.4167 -107.7191 457.9617)" class="st4" width="2.8" height="4.4"/> <rect x="296.9" y="309.2" transform="matrix(0.4164 -0.9092 0.9092 0.4164 -108.4495 452.6025)" class="st4" width="2.8" height="3.2"/> <rect x="292" y="306.4" transform="matrix(0.4166 -0.9091 0.9091 0.4166 -109.3175 446.6325)" class="st4" width="2.8" height="4.2"/> <rect x="287" y="304.1" transform="matrix(0.4164 -0.9092 0.9092 0.4164 -110.113 440.9051)" class="st4" width="2.8" height="4.2"/> <rect x="375.7" y="344.7" transform="matrix(0.4164 -0.9092 0.9092 0.4164 -95.2909 545.2632)" class="st4" width="2.8" height="4.4"/> <rect x="371" y="343.1" transform="matrix(0.4168 -0.909 0.909 0.4168 -96.1595 539.5499)" class="st4" width="2.8" height="3.2"/> <rect x="366" y="340.3" transform="matrix(0.4167 -0.9091 0.9091 0.4167 -96.9607 533.7564)" class="st4" width="2.8" height="4.2"/> <rect x="361.1" y="338" transform="matrix(0.4169 -0.9089 0.9089 0.4169 -97.8376 527.8158)" class="st4" width="2.8" height="4.2"/> <g class="st5"> <rect x="328.2" y="276.6" transform="matrix(0.4165 -0.9091 0.9091 0.4165 -109.8077 496.3075)" class="st3" width="7" height="114.2"/> </g> <rect x="327.1" y="330.9" transform="matrix(0.4165 -0.9091 0.9091 0.4165 -110.3526 492.5003)" class="st4" width="2.8" height="2.6"/> <rect x="329.9" y="332.5" transform="matrix(0.4171 -0.9089 0.9089 0.4171 -109.9876 495.4737)" class="st4" width="2.8" height="1.9"/> <rect x="332.8" y="333.6" transform="matrix(0.4161 -0.9093 0.9093 0.4161 -109.3295 499.3744)" class="st4" width="2.8" height="2.5"/> <rect x="335.7" y="334.9" transform="matrix(0.4166 -0.9091 0.9091 0.4166 -108.9389 502.5327)" class="st4" width="2.8" height="2.5"/> <rect x="298.7" y="317" transform="matrix(0.4163 -0.9092 0.9092 0.4163 -115.0569 459.206)" class="st4" width="2.8" height="4.4"/> <rect x="294.1" y="315.5" transform="matrix(0.4164 -0.9092 0.9092 0.4164 -115.8626 453.6306)" class="st4" width="2.8" height="3.2"/> <rect x="289.1" y="312.7" transform="matrix(0.4165 -0.9092 0.9092 0.4165 -116.7005 447.7487)" class="st4" width="2.8" height="4.2"/> <rect x="284.1" y="310.4" transform="matrix(0.4165 -0.9091 0.9091 0.4165 -117.5309 441.9179)" class="st4" width="2.8" height="4.2"/> <rect x="372.8" y="350.9" transform="matrix(0.4167 -0.9091 0.9091 0.4167 -102.7503 546.1788)" class="st4" width="2.8" height="4.4"/> <rect x="368.1" y="349.4" transform="matrix(0.4168 -0.909 0.909 0.4168 -103.5599 540.6053)" class="st4" width="2.8" height="3.2"/> <rect x="363.2" y="346.6" transform="matrix(0.4165 -0.9091 0.9091 0.4165 -104.332 534.8867)" class="st4" width="2.8" height="4.2"/> <rect x="358.2" y="344.3" transform="matrix(0.4167 -0.909 0.909 0.4167 -105.1998 528.9646)" class="st4" width="2.8" height="4.2"/> <rect x="324.3" y="337.2" transform="matrix(0.4165 -0.9091 0.9091 0.4165 -117.7561 493.5506)" class="st4" width="2.8" height="2.6"/> <rect x="327" y="338.8" transform="matrix(0.417 -0.9089 0.9089 0.417 -117.3733 496.5662)" class="st4" width="2.8" height="1.9"/> <rect x="329.9" y="339.9" transform="matrix(0.4166 -0.9091 0.9091 0.4166 -116.8264 500.1742)" class="st4" width="2.8" height="2.5"/> <rect x="332.8" y="341.2" transform="matrix(0.4163 -0.9092 0.9092 0.4163 -116.2902 503.7292)" class="st4" width="2.8" height="2.5"/> <rect x="295.9" y="323.3" transform="matrix(0.4166 -0.9091 0.9091 0.4166 -122.5043 460.1266)" class="st4" width="2.8" height="4.4"/> <rect x="291.2" y="321.8" transform="matrix(0.417 -0.9089 0.9089 0.417 -123.3478 454.425)" class="st4" width="2.8" height="3.2"/> <rect x="286.2" y="319" transform="matrix(0.4164 -0.9092 0.9092 0.4164 -124.0892 448.848)" class="st4" width="2.8" height="4.2"/> <rect x="281.2" y="316.7" transform="matrix(0.4166 -0.9091 0.9091 0.4166 -124.9496 442.9208)" class="st4" width="2.8" height="4.2"/> <rect x="369.9" y="357.2" transform="matrix(0.4166 -0.9091 0.9091 0.4166 -110.1351 547.2787)" class="st4" width="2.8" height="4.4"/> <rect x="365.3" y="355.7" transform="matrix(0.4164 -0.9092 0.9092 0.4164 -110.8898 541.8426)" class="st4" width="2.8" height="3.2"/> <rect x="360.3" y="352.9" transform="matrix(0.4163 -0.9092 0.9092 0.4163 -111.6948 536.0482)" class="st4" width="2.8" height="4.2"/> <rect x="355.3" y="350.6" transform="matrix(0.4166 -0.9091 0.9091 0.4166 -112.573 530.095)" class="st4" width="2.8" height="4.2"/> <g class="st5"> <rect x="322.5" y="289.2" transform="matrix(0.4165 -0.9091 0.9091 0.4165 -124.6158 498.4116)" class="st3" width="7" height="114.2"/> </g> <rect x="321.4" y="343.5" transform="matrix(0.4165 -0.9091 0.9091 0.4165 -125.161 494.6018)" class="st4" width="2.8" height="2.6"/> <rect x="324.1" y="345.1" transform="matrix(0.416 -0.9094 0.9094 0.416 -124.615 498.0889)" class="st4" width="2.8" height="1.9"/> <rect x="327" y="346.2" transform="matrix(0.4168 -0.909 0.909 0.4168 -124.2658 501.1209)" class="st4" width="2.8" height="2.5"/> <rect x="329.9" y="347.5" transform="matrix(0.4166 -0.9091 0.9091 0.4166 -123.7417 504.6476)" class="st4" width="2.8" height="2.5"/> <rect x="293" y="329.6" transform="matrix(0.4166 -0.9091 0.9091 0.4166 -129.9084 461.178)" class="st4" width="2.8" height="4.4"/> <rect x="288.3" y="328.1" transform="matrix(0.4165 -0.9091 0.9091 0.4165 -130.6821 455.6987)" class="st4" width="2.8" height="3.2"/> <rect x="283.3" y="325.3" transform="matrix(0.4164 -0.9092 0.9092 0.4164 -131.5021 449.8739)" class="st4" width="2.8" height="4.2"/> <rect x="278.4" y="323" transform="matrix(0.4166 -0.9091 0.9091 0.4166 -132.353 443.9718)" class="st4" width="2.8" height="4.2"/> <rect x="367.1" y="363.5" transform="matrix(0.4162 -0.9093 0.9093 0.4162 -117.4715 548.5101)" class="st4" width="2.8" height="4.4"/> <rect x="362.4" y="362" transform="matrix(0.4165 -0.9091 0.9091 0.4165 -118.31 542.8541)" class="st4" width="2.8" height="3.2"/> <rect x="357.4" y="359.2" transform="matrix(0.4163 -0.9092 0.9092 0.4163 -119.1036 537.0913)" class="st4" width="2.8" height="4.2"/> <rect x="352.4" y="356.9" transform="matrix(0.4166 -0.9091 0.9091 0.4166 -119.9868 531.1209)" class="st4" width="2.8" height="4.2"/> <rect x="318.5" y="349.8" transform="matrix(0.4166 -0.9091 0.9091 0.4166 -132.578 495.6136)" class="st4" width="2.8" height="2.6"/> <rect x="321.2" y="351.4" transform="matrix(0.4167 -0.909 0.909 0.4167 -132.1382 498.7835)" class="st4" width="2.8" height="1.9"/> <rect x="324.2" y="352.5" transform="matrix(0.4163 -0.9092 0.9092 0.4163 -131.5856 502.4237)" class="st4" width="2.8" height="2.5"/> <rect x="327.1" y="353.8" transform="matrix(0.4166 -0.9091 0.9091 0.4166 -131.15 505.6839)" class="st4" width="2.8" height="2.5"/> <rect x="290.1" y="335.9" transform="matrix(0.4164 -0.9092 0.9092 0.4164 -137.2965 462.2851)" class="st4" width="2.8" height="4.4"/> <rect x="285.4" y="334.3" transform="matrix(0.4165 -0.9092 0.9092 0.4165 -138.0796 456.7747)" class="st4" width="2.8" height="3.2"/> <rect x="280.4" y="331.5" transform="matrix(0.4166 -0.9091 0.9091 0.4166 -138.933 450.835)" class="st4" width="2.8" height="4.2"/> <rect x="364.2" y="369.8" transform="matrix(0.4166 -0.9091 0.9091 0.4166 -124.9517 549.3555)" class="st4" width="2.8" height="4.4"/> <rect x="359.5" y="368.3" transform="matrix(0.4169 -0.909 0.909 0.4169 -125.7799 543.7203)" class="st4" width="2.8" height="3.2"/> <rect x="354.5" y="365.5" transform="matrix(0.4163 -0.9092 0.9092 0.4163 -126.5144 538.1265)" class="st4" width="2.8" height="4.2"/> <rect x="349.6" y="363.2" transform="matrix(0.4166 -0.9091 0.9091 0.4166 -127.3861 532.1836)" class="st4" width="2.8" height="4.2"/> <g class="st5"> <rect x="316.7" y="301.8" transform="matrix(0.4165 -0.9091 0.9091 0.4165 -139.4253 500.514)" class="st3" width="7" height="114.2"/> </g> <rect x="315.6" y="356.1" transform="matrix(0.4166 -0.9091 0.9091 0.4166 -139.9807 496.664)" class="st4" width="2.8" height="2.6"/> <rect x="318.3" y="357.7" transform="matrix(0.417 -0.9089 0.9089 0.417 -139.5785 499.7126)" class="st4" width="2.8" height="1.9"/> <rect x="321.3" y="358.8" transform="matrix(0.4169 -0.909 0.909 0.4169 -139.0764 503.1996)" class="st4" width="2.8" height="2.5"/> <rect x="324.2" y="360.1" transform="matrix(0.4161 -0.9093 0.9093 0.4161 -138.4621 507.0263)" class="st4" width="2.8" height="2.5"/> <rect x="287.2" y="342.2" transform="matrix(0.4166 -0.9091 0.9091 0.4166 -144.7221 463.2573)" class="st4" width="2.8" height="4.4"/> <rect x="282.5" y="340.6" transform="matrix(0.4167 -0.909 0.909 0.4167 -145.52 457.693)" class="st4" width="2.8" height="3.2"/> <rect x="277.5" y="337.8" transform="matrix(0.4166 -0.9091 0.9091 0.4166 -146.3312 451.9047)" class="st4" width="2.8" height="4.2"/> <rect x="361.3" y="376.1" transform="matrix(0.4165 -0.9091 0.9091 0.4165 -132.341 550.4482)" class="st4" width="2.8" height="4.4"/> <rect x="356.6" y="374.6" transform="matrix(0.4162 -0.9093 0.9093 0.4162 -133.0685 545.1014)" class="st4" width="2.8" height="3.2"/> <rect x="351.6" y="371.8" transform="matrix(0.4165 -0.9091 0.9091 0.4165 -133.9498 539.0916)" class="st4" width="2.8" height="4.2"/> <rect x="346.7" y="369.5" transform="matrix(0.4165 -0.9092 0.9092 0.4165 -134.7678 533.2994)" class="st4" width="2.8" height="4.2"/> <rect x="312.7" y="362.4" transform="matrix(0.4164 -0.9092 0.9092 0.4164 -147.3499 497.8362)" class="st4" width="2.8" height="2.6"/> <rect x="315.5" y="364" transform="matrix(0.416 -0.9094 0.9094 0.416 -146.8363 501.2502)" class="st4" width="2.8" height="1.9"/> <rect x="318.4" y="365" transform="matrix(0.4169 -0.909 0.909 0.4169 -146.4791 504.2495)" class="st4" width="2.8" height="2.5"/> <rect x="321.3" y="366.4" transform="matrix(0.4167 -0.909 0.909 0.4167 -145.9701 507.7424)" class="st4" width="2.8" height="2.5"/> <rect x="284.3" y="348.5" transform="matrix(0.4167 -0.9091 0.9091 0.4167 -152.1323 464.2849)" class="st4" width="2.8" height="4.4"/> <rect x="279.6" y="346.9" transform="matrix(0.4163 -0.9092 0.9092 0.4163 -152.8743 458.9332)" class="st4" width="2.8" height="3.2"/> <rect x="358.4" y="382.4" transform="matrix(0.4164 -0.9092 0.9092 0.4164 -139.7209 551.5734)" class="st4" width="2.8" height="4.4"/> <rect x="353.7" y="380.9" transform="matrix(0.4163 -0.9092 0.9092 0.4163 -140.484 546.1248)" class="st4" width="2.8" height="3.2"/> <rect x="348.7" y="378.1" transform="matrix(0.4165 -0.9091 0.9091 0.4165 -141.3543 540.1423)" class="st4" width="2.8" height="4.2"/> <rect x="343.8" y="375.8" transform="matrix(0.4165 -0.9092 0.9092 0.4165 -142.1728 534.3511)" class="st4" width="2.8" height="4.2"/> <g class="st5"> <rect x="310.9" y="314.4" transform="matrix(0.4165 -0.9091 0.9091 0.4165 -154.2329 502.6189)" class="st3" width="7" height="114.2"/> </g> <rect x="309.8" y="368.7" transform="matrix(0.4163 -0.9092 0.9092 0.4163 -154.7399 498.9434)" class="st4" width="2.8" height="2.6"/> <rect x="312.6" y="370.3" transform="matrix(0.417 -0.9089 0.9089 0.417 -154.3843 501.8011)" class="st4" width="2.8" height="1.9"/> <rect x="315.5" y="371.3" transform="matrix(0.4166 -0.9091 0.9091 0.4166 -153.8452 505.4272)" class="st4" width="2.8" height="2.5"/> <rect x="318.4" y="372.7" transform="matrix(0.4166 -0.9091 0.9091 0.4166 -153.3607 508.8358)" class="st4" width="2.8" height="2.5"/> <rect x="281.4" y="354.8" transform="matrix(0.4167 -0.9091 0.9091 0.4167 -159.535 465.3399)" class="st4" width="2.8" height="4.4"/> <rect x="276.8" y="353.2" transform="matrix(0.4162 -0.9093 0.9093 0.4162 -160.2684 460.0326)" class="st4" width="2.8" height="3.2"/> <rect x="355.5" y="388.7" transform="matrix(0.4166 -0.9091 0.9091 0.4166 -147.1616 552.5118)" class="st4" width="2.8" height="4.4"/> <rect x="350.8" y="387.2" transform="matrix(0.4167 -0.9091 0.9091 0.4167 -147.9538 546.9748)" class="st4" width="2.8" height="3.2"/> <rect x="345.9" y="384.4" transform="matrix(0.4166 -0.9091 0.9091 0.4166 -148.7762 541.1356)" class="st4" width="2.8" height="4.2"/> <rect x="340.9" y="382.1" transform="matrix(0.4167 -0.9091 0.9091 0.4167 -149.6112 535.2919)" class="st4" width="2.8" height="4.2"/> <rect x="360.6" y="253" transform="matrix(0.4159 -0.9094 0.9094 0.4159 -20.32 478.8828)" class="st6" width="4.1" height="4.4"/> <rect x="357.5" y="259.8" transform="matrix(0.416 -0.9094 0.9094 0.416 -28.2362 479.9795)" class="st7" width="4.1" height="4.4"/> <rect x="354.4" y="266.5" transform="matrix(0.4159 -0.9094 0.9094 0.4159 -36.1195 481.1415)" class="st8" width="4.1" height="4.4"/> <polygon class="st1" points="418.1,271.3 413.8,270.1 414.7,271.5 398.2,280.9 397.9,281 397.7,280.7 394.4,275.7 386.1,277.9 384.8,278.3 383.8,277.1 376.8,268.8 362.3,269.9 361.7,271.3 361,272.9 371.7,272.2 374.5,272 375.4,272 382.3,280.2 383.7,281.8 384.5,281.6 392.7,279.4 396,284.4 396.8,285.6 398.7,284.5 415.6,274.6 416.3,274.1 417,275.2 "/> <polygon class="st9" points="432.1,242.3 425.7,256.3 441.6,263.5 "/> </g> <rect x="138.2" y="196" class="st10" width="169.7" height="8"/> <path class="st11" d="M328.1,200.1c0-2.6-2.1-4.8-4.8-4.8c-2.6,0-4.8,2.1-4.8,4.8c0,2.6,2.1,4.8,4.8,4.8 C325.9,204.8,328.1,202.7,328.1,200.1z"/> <g> <polygon class="st10" points="326.7,199.9 306.6,186.6 306.6,212.4 "/> <polygon class="st7" points="146.1,179.1 129.3,179.1 141.6,195.8 158.4,195.8 "/> <polygon class="st7" points="158.6,204 141.7,204 129.4,220.8 146.3,220.8 "/> <polygon class="st1" points="157.6,179.1 140.7,179.1 153,195.8 169.9,195.8 "/> <polygon class="st1" points="170,204 153.2,204 140.9,220.8 157.7,220.8 "/> </g> <path class="st11" d="M60.6,185.5h46.7c1,0,1.9-0.8,1.9-1.9l0,0c0-1-0.8-1.9-1.9-1.9H60.6c-1,0-1.9,0.8-1.9,1.9l0,0 C58.7,184.7,59.5,185.5,60.6,185.5z"/> <path class="st11" d="M46.7,199.7h46.7c1,0,1.9-0.8,1.9-1.9l0,0c0-1-0.8-1.9-1.9-1.9H46.7c-1,0-1.9,0.8-1.9,1.9l0,0 C44.8,198.9,45.7,199.7,46.7,199.7z"/> <path class="st11" d="M64.4,215.1h40.2c0.2,0,0.3-0.1,0.3-0.3v-3.1c0-0.2-0.1-0.3-0.3-0.3H64.4c-0.2,0-0.3,0.1-0.3,0.3v3.1 C64.1,215,64.3,215.1,64.4,215.1z"/> <g class="st12"> <circle class="st13" cx="330.8" cy="231.2" r="12.3"/> </g> <g> <path class="st13" d="M177.2,400.7h34.1c0.9,0,1.6-0.7,1.6-1.6V365c0-0.9-0.7-1.6-1.6-1.6h-34.1c-0.9,0-1.6,0.7-1.6,1.6v34.1 C175.6,400,176.3,400.7,177.2,400.7z"/> <path class="st2" d="M188.9,373.2c0-1.5-1.2-2.6-2.6-2.6c-1.5,0-2.6,1.2-2.6,2.6c0,1.5,1.2,2.6,2.6,2.6 C187.8,375.8,188.9,374.7,188.9,373.2z"/> <path class="st2" d="M204.7,373.2c0-1.5-1.2-2.6-2.6-2.6c-1.5,0-2.6,1.2-2.6,2.6c0,1.5,1.2,2.6,2.6,2.6 C203.5,375.8,204.7,374.7,204.7,373.2z"/> <path class="st2" d="M188.9,390.3c0-1.5-1.2-2.6-2.6-2.6c-1.5,0-2.6,1.2-2.6,2.6c0,1.4,1.2,2.6,2.6,2.6 C187.8,392.9,188.9,391.7,188.9,390.3z"/> <path class="st2" d="M204.7,390.3c0-1.5-1.2-2.6-2.6-2.6c-1.5,0-2.6,1.2-2.6,2.6c0,1.4,1.2,2.6,2.6,2.6 C203.5,392.9,204.7,391.7,204.7,390.3z"/> <path class="st2" d="M197.2,381.5c0-1.5-1.2-2.6-2.6-2.6c-1.5,0-2.6,1.2-2.6,2.6c0,1.5,1.2,2.6,2.6,2.6 C196.1,384.2,197.2,383,197.2,381.5z"/> </g> <g> <path class="st13" d="M116.7,384.7l27.5,20.1c0.7,0.5,1.8,0.4,2.3-0.4l20.1-27.5c0.5-0.7,0.4-1.8-0.4-2.3l-27.5-20.1 c-0.7-0.5-1.8-0.4-2.3,0.4l-20.1,27.5C115.8,383.1,115.9,384.1,116.7,384.7z"/> <path class="st2" d="M144.2,381c0.9-1.2,0.6-2.8-0.6-3.7c-1.2-0.9-2.8-0.6-3.7,0.6c-0.9,1.2-0.6,2.8,0.6,3.7 C141.7,382.4,143.3,382.1,144.2,381z"/> </g> <path class="st10" d="M163.2,402.8c0-0.7-9.1-1.3-20.4-1.3s-20.4,0.6-20.4,1.3c0,0.7,9.1,1.3,20.4,1.3S163.2,403.5,163.2,402.8z"/> <path class="st10" d="M214.7,402.8c0-0.7-9.1-1.3-20.4-1.3c-11.3,0-20.4,0.6-20.4,1.3c0,0.7,9.1,1.3,20.4,1.3 C205.5,404.1,214.7,403.5,214.7,402.8z"/> </g> </svg>