<?xml version='1.0' encoding='utf-8'?>
<svg xmlns="http://www.w3.org/2000/svg" version="1.1" width="1025px" height="769px" viewBox="27 680 1025 769"> <g id="layer1"> <g style="fill:rgb(64,190,174); fill-opacity:1.0; stroke-linejoin: miter"> <path d="M26.999008,679.4071C26.842026,679.4071,26.691473,679.4695,26.580471,679.5805C26.46947,679.6915,26.407108,679.84204,26.407108,679.999L26.408108,1449.0C26.408108,1449.3269,26.673111,1449.5919,27.000008,1449.5919L1052.001,1449.5929C1052.158,1449.5929,1052.3086,1449.5305,1052.4196,1449.4196C1052.5305,1449.3086,1052.5929,1449.158,1052.5929,1449.001L1052.5919,680.0C1052.5919,679.6731,1052.3269,679.4081,1052.0,679.4081L26.999008,679.4071 Z"/> </g> <g> <g style="fill:rgb(220,229,235); fill-opacity:1.0; stroke-linejoin: miter"> <path d="M241.10529,1086.6143L241.10529,1086.6145L536.1084,1177.0295Q681.1449,1124.6599,826.18134,1072.2898L540.31635,1251.8673L241.10529,1086.6143"/> </g> <g> <g style="fill:rgb(88,49,28); fill-opacity:1.0; stroke-linejoin: miter"> <path d="M678.0749,980.19073Q681.96625,980.59344,684.11804,982.2941Q686.0842,983.73114,687.52277,987.5367L671.2309,1004.33307L663.7265,1003.65753Q660.918,1000.9532,660.8473,996.12396Q660.864,990.39484,663.4188,986.081Q667.3758,979.512,678.0413,980.1871"/> </g> <g style="fill:rgb(255,255,255); fill-opacity:1.0; stroke-linejoin: miter"> <path d="M685.5653,1015.04047L689.12305,1031.1685L690.48553,1098.0135L658.4903,1093.2832L665.3583,1015.3073L685.55743,1015.04047"/> </g> <g style="fill:rgb(0,0,0); fill-opacity:1.0; stroke-linejoin: miter"> <path d="M701.61804,1088.7537Q703.8416,1124.0728,703.7047,1130.2031L702.93207,1155.3518Q702.7736,1160.2472,701.8926,1219.9403Q701.68567,1231.0583,701.4374,1233.0969L701.38666,1233.3188L686.07635,1235.9465L675.9271,1125.9847L663.71826,1227.8513L650.03644,1226.1737Q650.66565,1184.12,649.7077,1154.5184Q649.136,1132.3683,645.5134,1085.1222L701.5922,1088.752"/> </g> <g style="fill:rgb(0,0,0); fill-opacity:1.0; stroke-linejoin: miter"> <path d="M734.7061,1017.30646L750.78394,1025.2281Q745.654,1042.7802,742.5307,1049.8206Q738.9682,1058.085,735.40393,1060.8789Q731.7896,1063.7485,726.8408,1062.4087Q722.7285,1061.5104,713.6094,1055.1921L715.5656,1120.8832L688.0454,1124.8947L685.5931,1049.4103L685.60443,1015.7183L689.18976,1018.5319L709.7677,1022.8774Q714.2794,1030.4072,717.2744,1033.3818Q720.1705,1036.5101,727.17786,1040.9683L734.6914,1017.35284"/> </g> <g style="fill:rgb(0,0,0); fill-opacity:1.0; stroke-linejoin: miter"> <path d="M665.2721,1016.77423L670.043,1126.1661L650.1846,1123.893L632.1727,1124.9995Q634.5691,1077.6093,636.29553,1061.2311Q637.9306,1043.9641,641.9097,1027.8516L665.19543,1016.81"/> </g> <g style="fill:rgb(126,142,167); fill-opacity:1.0; stroke-linejoin: miter"> <path d="M677.1722,1024.6041L682.54663,1026.1993L680.37823,1031.3406L680.37726,1031.442L683.3243,1084.1096L677.96674,1088.8293L672.4353,1083.1823L676.6837,1032.1396L672.838,1028.0099L677.1665,1024.6085"/> </g> <g style="fill:rgb(255,189,154); fill-opacity:1.0; stroke-linejoin: miter"> <path d="M684.50183,983.5109Q685.9404,983.6275,687.22943,985.9073Q689.0691,989.268,689.5873,992.3532Q689.7287,993.3249,689.689,994.2011Q689.29443,997.9439,689.3739,998.1098Q689.3388,998.49677,689.6844,1001.88055Q689.7306,1002.5843,689.71277,1003.0976Q689.6947,1003.72845,689.57056,1004.48737Q688.8393,1007.8443,688.90607,1008.0192Q688.8106,1008.43475,689.0053,1011.74384Q689.0026,1012.6513,688.90735,1013.2171Q688.66174,1014.6337,688.0272,1014.96075Q687.38464,1015.3903,685.64813,1015.2043L685.57935,1019.56805L678.05804,1025.092L665.73047,1017.74567L666.4563,1009.33344Q664.0907,1005.5755,663.42255,1003.76605Q662.6288,1001.78094,662.88947,1000.18475Q663.50903,997.40985,665.31714,997.43634Q666.5036,997.3931,669.242,1000.93243Q669.5221,992.74164,670.22504,989.4926Q670.95715,985.8221,672.521,984.7Q673.49554,983.9504,674.9776,983.8068Q675.57697,983.74384,676.3927,983.779Q680.1227,984.14606,680.3816,984.0528Q681.31604,984.06085,683.75684,983.5357L684.458,983.507"/> </g> <g style="fill:rgb(255,189,154); fill-opacity:1.0; stroke-linejoin: miter"> <path d="M644.3022,1130.1337Q643.8497,1130.2,643.8612,1131.858Q643.92487,1133.3096,644.4402,1134.351Q645.0964,1135.8329,647.3043,1136.0729Q646.9055,1135.5486,646.4676,1134.6038L644.86694,1130.8489Q644.5042,1130.1326,644.3028,1130.1339 M648.31537,1123.7156Q648.19904,1126.9954,648.3753,1128.527Q648.46625,1129.4285,648.64514,1130.2078Q648.6914,1130.5024,649.3654,1132.8333L649.5644,1133.7493Q649.73175,1134.7438,649.49365,1135.4813Q649.216,1136.3433,648.6169,1136.6088Q648.3885,1136.6908,648.1969,1136.6587Q647.1663,1137.0583,645.99774,1137.3069Q644.98254,1137.5231,644.0017,1137.5842Q639.77826,1137.971,636.9723,1134.4519Q635.22424,1132.2906,634.2756,1129.5294Q633.4403,1127.0458,633.9404,1125.381Q634.14404,1124.7715,634.3241,1124.5704L648.2987,1123.7168"/> </g> <g style="fill:rgb(255,189,154); fill-opacity:1.0; stroke-linejoin: miter"> <path d="M743.0473,999.2601Q745.4632,999.5435,746.1434,1001.02875Q746.37524,1001.5494,746.4454,1002.28265L746.5242,1005.42633Q746.5824,1006.2828,746.74896,1006.88495Q746.9372,1007.5727,747.29614,1008.30414Q749.0424,1011.4631,749.0215,1011.59296Q749.43427,1012.5988,749.43274,1013.3693Q749.45667,1014.5583,748.58453,1016.07477Q747.7875,1017.5297,745.13556,1020.43866L743.272,1024.1094L734.2182,1019.956Q734.0164,1016.28436,734.0039,1014.393Q733.9385,998.6525,743.02344,999.2575"/> </g> <g style="fill:rgb(255,0,0); fill-opacity:0.09411765; stroke-linejoin: miter"> <path d="M674.6869,1013.44745Q678.00464,1014.6816,679.6145,1014.9792Q681.1637,1015.3156,684.096,1015.3184L685.6159,1019.4991L678.0875,1025.154L672.283,1021.648L674.68243,1013.4627"/> </g> <g style="fill:rgb(0,0,0); fill-opacity:1.0; stroke-linejoin: miter"> <path d="M663.7457,1224.1714L663.7744,1234.7145Q660.5137,1235.992,659.82886,1236.8358Q659.49524,1237.198,659.39825,1237.6088Q659.33795,1237.5977,659.23456,1239.329Q659.1668,1239.761,658.97076,1240.1471Q658.58093,1240.9531,657.20746,1241.8655Q655.1661,1243.1995,652.1711,1244.274Q650.07404,1245.026,648.51416,1244.8871Q646.1278,1244.6149,644.42633,1243.1599Q642.9795,1241.836,643.295,1240.1917Q643.4512,1238.9878,644.7209,1236.4692Q645.9867,1233.9352,651.74976,1223.2257L663.7075,1224.1687"/> </g> <g style="fill:rgb(0,0,0); fill-opacity:1.0; stroke-linejoin: miter"> <path d="M700.04175,1231.0079L700.06476,1231.0546Q703.6343,1238.3735,705.3871,1240.8419Q706.15326,1241.9664,707.0362,1242.9067Q707.2751,1243.2239,709.98944,1245.7158Q710.6286,1246.3457,711.1741,1247.0068Q712.5694,1248.7128,713.6498,1250.8658Q716.27155,1256.2051,712.7755,1256.727Q710.9432,1257.1494,706.29785,1256.442Q701.9849,1255.7612,699.18463,1254.6122Q696.6548,1253.5897,695.54114,1252.09Q694.9627,1251.3385,694.6127,1250.414Q694.3182,1249.714,694.029,1248.0156Q693.96466,1247.7805,693.9028,1247.7384Q693.80414,1247.6609,693.6751,1247.7174Q692.7748,1248.195,692.4077,1248.2825Q692.0367,1248.3997,691.5129,1248.4543Q690.3037,1248.5625,688.9033,1248.1971Q686.12946,1247.4094,685.1002,1245.3606Q683.53217,1242.26,686.5099,1233.9039L700.00684,1231.0153"/> </g> <g style="fill:rgb(60,70,79); fill-opacity:1.0; stroke-linejoin: miter"> <path d="M728.32587,992.72003L761.8645,992.5357L795.40314,992.3516L728.32587,992.72003"/> </g> <g style="fill:rgb(60,70,79); fill-opacity:1.0; stroke-linejoin: miter"> <path d="M720.13446,993.16815L752.45245,993.16864L784.7704,993.16925Q784.7704,997.9733,784.7704,1002.7773Q752.45245,1002.7778,720.13446,1002.77826Q720.13446,997.9733,720.13446,993.16815"/> </g> <g style="fill:rgb(60,70,79); fill-opacity:1.0; stroke-linejoin: miter"> <path d="M686.6933,995.3387L696.4295,995.3392L706.16565,995.3399Q706.16565,997.8326,706.16565,1000.32513Q696.4295,1000.3256,686.6933,1000.3261Q686.6933,997.83234,686.6933,995.3387"/> </g> <g style="fill:rgb(150,196,237); fill-opacity:1.0; stroke-linejoin: miter"> <path d="M785.91095,997.8095L785.89197,998.4781Q785.75757,1000.4987,785.1058,1001.71014Q784.44934,1002.92035,783.55994,1002.6916Q782.7108,1002.37177,782.2019,1000.8204Q781.69336,999.2581,781.7895,997.14105Q781.92377,995.1204,782.5757,993.9091Q783.2321,992.69867,784.1217,992.92755Q784.97064,993.24725,785.47955,994.7989Q785.64276,995.30023,785.74835,995.89166L785.837,996.4996Q785.9102,997.1274,785.91095,997.8095"/> </g> <g style="fill:rgb(60,70,79); fill-opacity:1.0; stroke-linejoin: miter"> <path d="M786.2541,998.0423L786.2541,998.0423C786.2541,1000.6574,785.3356,1003.6674,783.4528,1003.6674L783.4528,1003.6674C781.57,1003.6674,780.65155,1000.6574,780.65155,998.0423L780.65155,998.0423C780.65155,995.42706,781.57,992.41705,783.4528,992.41705L783.4528,992.41705C785.3356,992.41705,786.2541,995.42706,786.2541,998.0423L786.2541,998.0423 M785.04956,998.0423L785.04956,998.0423C785.04956,995.1092,783.9991,993.62164,783.4528,993.62164L783.4528,993.62164C782.9064,993.62164,781.8562,995.1092,781.8562,998.0423L781.8562,998.0423C781.8562,1000.97516,782.9064,1002.4628,783.4528,1002.4628L783.4528,1002.4628C783.9991,1002.4628,785.04956,1000.97516,785.04956,998.0423 Z"/> </g> <g style="fill:rgb(60,70,79); fill-opacity:1.0; stroke-linejoin: miter"> <path d="M625.87085,799.5788L625.87085,799.5788L625.87085,799.5788L625.87085,799.5788L625.87085,799.5788L625.87085,799.5788L625.87085,799.5788L625.87085,799.5788L625.87085,799.5788L625.87085,799.5788 M625.37756,803.7561L625.37756,803.7561L625.37756,803.7561L625.37756,803.7561L625.37756,803.7561L625.37756,803.7561L625.37756,803.7561L625.37756,803.7561L625.37756,803.7561 Z"/> </g> <g style="fill:rgb(60,70,79); fill-opacity:1.0; stroke-linejoin: miter"> <path d="M625.87085,799.5788L625.87085,799.5788L625.87085,799.5788L625.87085,799.5788L625.87085,799.5788L625.87085,799.5788L625.87085,799.5788L625.87085,799.5788L625.87085,799.5788L625.87085,799.5788 M625.37756,803.7561L625.37756,803.7561L625.37756,803.7561L625.37756,803.7561L625.37756,803.7561L625.37756,803.7561L625.37756,803.7561L625.37756,803.7561L625.37756,803.7561 Z"/> </g> <g style="fill:rgb(60,70,79); fill-opacity:1.0; stroke-linejoin: miter"> <path d="M625.87085,799.5788L625.87085,799.5788L625.87085,799.5788L625.87085,799.5788L625.87085,799.5788L625.87085,799.5788L625.87085,799.5788L625.87085,799.5788L625.87085,799.5788L625.87085,799.5788 M625.37756,803.7561L625.37756,803.7561L625.37756,803.7561L625.37756,803.7561L625.37756,803.7561L625.37756,803.7561L625.37756,803.7561L625.37756,803.7561L625.37756,803.7561 Z"/> </g> <g style="fill:rgb(60,70,79); fill-opacity:1.0; stroke-linejoin: miter"> <path d="M699.2444,994.6353L710.5841,994.6358L721.9238,994.6364Q721.9238,998.07904,721.9238,1001.52155Q710.5841,1001.52203,699.2444,1001.52264Q699.2444,998.07904,699.2444,994.6353"/> </g> </g> <g style="fill:rgb(165,179,188); fill-opacity:1.0; stroke-linejoin: miter"> <path d="M456.69373,1179.8646L456.69373,1179.8649L535.21326,1100.9971Q577.3079,1139.9939,619.4024,1178.9901Q578.2715,1208.0759,537.14075,1237.1615L456.69373,1179.8646"/> </g> <g style="fill:rgb(146,159,168); fill-opacity:1.0; stroke-linejoin: miter"> <path d="M336.9037,1130.0488L336.9037,1130.0496L336.9037,1130.049L336.9037,1130.0488L336.9037,1130.0496L336.9037,1130.0488L336.9037,1130.049Q336.9037,1130.0488,336.9037,1130.0488 Z"/> </g> <g style="fill:rgb(125,139,150); fill-opacity:1.0; stroke-linejoin: miter"> <path d="M828.7555,1070.1543L717.0439,1274.9554L361.2565,1285.5408L240.57416,1086.756L537.194,1207.6643L828.7555,1070.1543"/> </g> <g style="fill:rgb(60,70,79); fill-opacity:1.0; stroke-linejoin: miter"> <path d="M537.12427,1207.6317L449.41754,1246.5386L361.71085,1285.4471Q540.5609,1280.3779,719.4108,1275.3094L537.12427,1207.6317"/> </g> <g style="fill:rgb(60,70,79); fill-opacity:1.0; stroke-linejoin: miter"> <path d="M534.74304,1101.5948L535.00543,1105.6573Q535.6533,1115.9426,535.7655,1118.2753Q536.00757,1122.6606,536.22253,1127.4762L536.4281,1132.4426Q536.6255,1137.5386,536.7795,1143.3231L536.9199,1149.3228Q537.04816,1155.516,537.1167,1162.6561Q537.18353,1169.8252,537.19055,1177.9418Q537.2234,1181.5367,537.10486,1203.9902Q536.96063,1226.8528,536.36707,1273.3087L534.74304,1101.5948"/> </g> </g> <g style="fill:rgb(165,221,211); fill-opacity:1.0; stroke-linejoin: miter"> <path d="M381.71066,1242.2501L376.53925,1247.5413Q360.3342,1262.9293,339.48795,1270.5182Q321.95038,1275.9266,318.06717,1275.8352Q310.69568,1276.8724,303.11227,1276.8767Q256.3753,1276.0299,224.85626,1242.6133L225.04785,1322.4475Q226.07993,1333.9221,231.29715,1343.5944L846.51556,1343.5935Q851.73285,1333.9229,852.7644,1322.4485L852.95605,1242.6147Q837.772,1259.0048,817.63367,1267.8877Q800.6502,1274.405,796.83154,1274.5762Q789.637,1276.0958,782.1902,1276.617Q759.23456,1278.1028,738.32556,1270.5183Q707.9143,1257.451,696.10266,1242.25Q658.4341,1281.9937,602.5496,1275.8354Q564.824,1270.1741,538.9062,1242.2502Q507.32724,1276.0203,460.30783,1276.8765Q413.28793,1276.0203,381.71066,1242.2501 Z"/> </g> <g style="fill:rgb(0,170,170); fill-opacity:1.0; stroke-linejoin: miter"> <path d="M381.7106,1276.8765L376.53925,1282.1674Q360.33423,1297.5559,339.488,1305.1444Q321.95044,1310.5531,318.06723,1310.4618Q310.69574,1311.4988,303.11234,1311.503Q256.37534,1310.6566,224.85626,1277.2397Q222.0191,1334.4783,231.29724,1343.5944L846.5153,1343.5935Q855.7931,1334.4784,852.95605,1277.2399Q837.772,1293.6305,817.63367,1302.5138Q800.6503,1309.0316,796.83167,1309.2025Q789.6375,1310.7224,782.191,1311.2433Q759.23615,1312.7294,738.3269,1305.1447Q707.9158,1292.0774,696.104,1276.8763Q684.2923,1292.0775,653.88135,1305.1444Q640.05597,1310.1636,625.0361,1311.2405L617.5056,1311.5028Q609.92236,1311.4989,602.55084,1310.4617Q564.8254,1304.8002,538.9074,1276.8767Q507.32864,1310.6469,460.3092,1311.503Q413.28952,1310.647,381.7106,1276.8765 Z"/> </g> <g style="fill:rgb(214,241,238); fill-opacity:1.0; stroke-linejoin: miter"> <path d="M697.4656,889.7458C697.8844,888.2152,698.08826,886.6364,698.0721,885.03534C697.9752,875.5691,690.19495,867.9458,680.72815,868.04254C676.79034,868.08307,672.9573,869.49023,669.9351,872.0041C667.2472,874.2398,665.29694,877.2616,664.36505,880.6031C658.0238,880.076,652.33746,884.15375,650.6075,890.0386C649.64624,889.8305,648.6653,889.73016,647.67725,889.74054C640.391,889.81494,634.5236,895.7598,634.59814,903.04553C634.6731,910.3308,640.66077,916.155,647.94653,916.0805L694.0762,915.60944C701.362,915.53467,707.229,909.58936,707.15454,902.3039C707.0936,896.34375,703.09656,891.29083,697.4656,889.7458 Z"/> </g> <g style="fill:rgb(214,241,238); fill-opacity:1.0; stroke-linejoin: miter"> <path d="M365.83124,936.133C366.35974,934.2967,366.6305,932.3984,366.63687,930.4711C366.67273,919.07043,357.42664,909.76825,346.028,909.7314C341.2856,909.716,336.6472,911.3487,332.96848,914.3277C329.69687,916.9768,327.29947,920.5841,326.12332,924.59094C318.49722,923.85486,311.58508,928.67426,309.408,935.73175C308.25363,935.4649,307.07446,935.3278,305.8849,935.32465C297.11154,935.29767,289.95218,942.36127,289.9234,951.1347C289.89594,959.9084,297.01065,967.01715,305.7846,967.0439L361.333,967.2209C370.1066,967.2487,377.2665,960.184,377.29437,951.40985C377.31696,944.2326,372.58557,938.0828,365.83124,936.133 Z"/> </g> </g> </svg>